<svg version="1.1" xmlns="http://www.w3.org/2000/svg" xmlns:xlink="http://www.w3.org/1999/xlink" width="24.41036" height="61.40945" viewBox="0,0,24.41036,61.40945"><g transform="translate(-210.99011,-130.15707)"><g data-paper-data="{&quot;isPaintingLayer&quot;:true}" fill="#000000" fill-rule="nonzero" stroke="none" stroke-width="0.5" stroke-linecap="butt" stroke-linejoin="miter" stroke-miterlimit="10" stroke-dasharray="" stroke-dashoffset="0" style="mix-blend-mode: normal"><path d="M214.46453,153.22977c-5.71718,-5.04712 -3.88924,-15.67632 1.92542,-19.55853c3.30475,-2.36053 8.39285,-4.59571 12.53897,-2.94536c7.74599,3.08328 7.86462,13.95298 3.89246,19.81884c-2.3131,1.86909 -5.8897,3.99294 -8.85978,4.54441c0.1242,8.67442 1.20323,17.28035 1.18526,25.92225c0.40766,2.85361 0.20314,5.80772 0.20314,8.68861l0.13585,0.20472c0,0 0.39528,1.18585 -0.79057,1.58114l0.00001,-0.00001c-1.18585,0.39528 -1.58114,-0.79057 -1.58114,-0.79057l-0.26415,-0.99528c0,-2.82267 0.20255,-5.71554 -0.19686,-8.51139c-0.01653,-8.87179 -1.11194,-17.69211 -1.19781,-26.5979c-2.44302,0.10823 -5.1195,0.29104 -6.99079,-1.36094zM223.9379,152.55294c2.34706,-0.52459 5.25925,-2.29627 7.04072,-3.69767c2.92685,-4.49233 3.06978,-13.3716 -2.90754,-15.78116c-3.38061,-1.36277 -7.61023,0.76121 -10.26103,2.65464c-0.96976,0.64551 -2.2128,1.32225 -2.81806,2.37956c-1.83143,3.19929 -2.57151,12.15622 1.95413,13.82402c1.64667,0.60683 4.21533,0.11768 5.95387,0.11768c0,0 0.68126,0 1.0379,0.50293z"/></g></g></svg>