<svg version="1.1" xmlns="http://www.w3.org/2000/svg" xmlns:xlink="http://www.w3.org/1999/xlink" width="24.96596" height="72.01965" viewBox="0,0,24.96596,72.01965"><g transform="translate(-210.99013,-130.15708)"><g data-paper-data="{&quot;isPaintingLayer&quot;:true}" fill="#000000" fill-rule="nonzero" stroke="none" stroke-width="0.5" stroke-linecap="butt" stroke-linejoin="miter" stroke-miterlimit="10" stroke-dasharray="" stroke-dashoffset="0" style="mix-blend-mode: normal"><path d="M235.93299,171.3055c-0.2055,1.23299 -1.43849,1.02749 -1.43849,1.02749l-0.9945,-0.18299c-2.87935,0 -5.75826,0 -8.63772,0c0.16849,2.95238 0.29075,5.90478 0.2846,8.86139c0.36442,2.55093 0.23964,5.18216 0.20907,7.76962c0.21947,0.22675 0.31448,0.48009 0.31448,0.48009c1.34588,3.5953 2.82488,7.0344 4.54762,10.47989l0.13197,0.75902c0,0 0,1.25 -1.25,1.25l-0.00001,-0.00001c-1.02225,0 -1.2085,-0.83599 -1.24244,-1.14063c-1.30995,-2.63759 -2.48033,-5.27595 -3.5628,-7.9809c-2.63706,2.94056 -5.5395,5.77921 -8.31087,8.55542l-0.6,0.6c0,0 -0.88388,0.88388 -1.76777,0c-0.88388,-0.88388 0,-1.76777 0,-1.76777l0.6,-0.6c2.9472,-2.94163 6.04434,-5.96535 8.79556,-9.10697l-0.16167,-0.60915c0,-2.82267 0.20255,-5.71554 -0.19686,-8.51139c-0.00562,-3.01703 -0.13601,-6.0281 -0.30904,-9.03861c-3.08,0 -6.16097,0 -9.24412,0c0,0 -1.25,0 -1.25,-1.25c0,-1.25 1.25,-1.25 1.25,-1.25c3.03227,0 6.06278,0 9.09237,0c-0.31668,-5.00894 -0.68844,-10.02043 -0.73703,-15.05929c-2.44302,0.10823 -5.1195,0.29104 -6.99079,-1.36094l-0.00001,0.00001c-5.71718,-5.04712 -3.88924,-15.67632 1.92542,-19.55853c3.30475,-2.36053 8.39285,-4.59571 12.53897,-2.94536c7.74599,3.08328 7.86462,13.95298 3.89246,19.81884c-2.3131,1.86909 -5.8897,3.99294 -8.85978,4.54441c0.06971,4.86904 0.44027,9.7165 0.74879,14.56086c2.93024,0 5.85985,0 8.7896,0l1.4055,0.21701c0,0 1.23299,0.2055 1.02749,1.43849zM223.93792,152.55295c2.34706,-0.52459 5.25925,-2.29627 7.04072,-3.69767c2.92685,-4.49233 3.06978,-13.3716 -2.90754,-15.78116c-3.38061,-1.36277 -7.61023,0.76121 -10.26103,2.65464c-0.96976,0.64551 -2.2128,1.32225 -2.81806,2.37956c-1.83143,3.19929 -2.57151,12.15622 1.95413,13.82402c1.64667,0.60683 4.21533,0.11768 5.95387,0.11768c0,0 0.68126,0 1.0379,0.50293z"/></g></g></svg>